HIERARCHY
ROOT hips
{
	OFFSET -0.003675 0.299928 -0.021708
	CHANNELS 6 Xposition Yposition Zposition Xrotation Yrotation Zrotation
	JOINT LowerBack
	{
		OFFSET 0.000919 0.177588 0.009275
		CHANNELS 3 Xrotation Yrotation Zrotation
		JOINT spine
		{
			OFFSET 0.000919 0.177588 0.009275
			CHANNELS 3 Xrotation Yrotation Zrotation
			JOINT chest
			{
				OFFSET 0.000456 0.100015 0.004638
				CHANNELS 3 Xrotation Yrotation Zrotation
				JOINT neck
				{
					OFFSET 0.000456 0.100015 0.004638
					CHANNELS 3 Xrotation Yrotation Zrotation
					JOINT head
					{
						OFFSET 0.000924 0.155147 0.009274
						CHANNELS 6 Xposition Yposition Zposition Xrotation Yrotation Zrotation
						End Site
						{
							OFFSET 0.000000 0.153400 0.000000
						}
					}
				}
				JOINT shoulder.L
				{
					OFFSET 0.019937 0.078966 0.057518
					CHANNELS 6 Xposition Yposition Zposition Yrotation Xrotation Zrotation
					JOINT upper_arm.L
					{
						OFFSET 0.177024 -0.020465 -0.095062
						CHANNELS 6 Xposition Yposition Zposition Xrotation Yrotation Zrotation
						JOINT forearm.L
						{
							OFFSET 0.247100 -0.135500 -0.061800
							CHANNELS 3 Xrotation Yrotation Zrotation
							JOINT hand.L
							{
								OFFSET 0.217000 -0.143000 0.039300
								CHANNELS 3 Xrotation Yrotation Zrotation
								JOINT palm.01.L
								{
									OFFSET 0.021770 -0.038291 0.012954
									CHANNELS 6 Xposition Yposition Zposition Yrotation Xrotation Zrotation
									JOINT f_index.01.L
									{
										OFFSET 0.053215 -0.044137 0.008236
										CHANNELS 3 Xrotation Yrotation Zrotation
										JOINT f_index.02.L
										{
											OFFSET 0.036108 -0.024723 -0.010656
											CHANNELS 3 Xrotation Yrotation Zrotation
											JOINT f_index.03.L
											{
												OFFSET 0.021342 -0.014948 -0.010846
												CHANNELS 3 Xrotation Yrotation Zrotation
												End Site
												{
													OFFSET 0.015600 -0.009860 -0.013421
												}
											}
										}
									}
									JOINT thumb.01.L
									{
										OFFSET -0.009090 -0.002348 -0.024223
										CHANNELS 6 Xposition Yposition Zposition Xrotation Yrotation Zrotation
										JOINT thumb.02.L
										{
											OFFSET 0.019713 -0.035076 -0.011120
											CHANNELS 3 Xrotation Yrotation Zrotation
											JOINT thumb.03.L
											{
												OFFSET 0.024877 -0.021748 -0.005176
												CHANNELS 3 Xrotation Yrotation Zrotation
												End Site
												{
													OFFSET 0.016125 -0.013029 -0.001569
												}
											}
										}
									}
								}
								JOINT palm.02.L
								{
									OFFSET 0.032823 -0.025104 0.012281
									CHANNELS 6 Xposition Yposition Zposition Yrotation Xrotation Zrotation
									JOINT f_middle.01.L
									{
										OFFSET 0.055723 -0.038469 0.008037
										CHANNELS 3 Xrotation Yrotation Zrotation
										JOINT f_middle.02.L
										{
											OFFSET 0.038167 -0.027473 -0.015582
											CHANNELS 3 Xrotation Yrotation Zrotation
											JOINT f_middle.03.L
											{
												OFFSET 0.021707 -0.016587 -0.017037
												CHANNELS 3 Xrotation Yrotation Zrotation
												End Site
												{
													OFFSET 0.014112 -0.010584 -0.014294
												}
											}
										}
									}
								}
								JOINT palm.03.L
								{
									OFFSET 0.039230 -0.011402 0.008390
									CHANNELS 6 Xposition Yposition Zposition Yrotation Xrotation Zrotation
									JOINT f_ring.01.L
									{
										OFFSET 0.061796 -0.031470 0.007910
										CHANNELS 3 Xrotation Yrotation Zrotation
										JOINT f_ring.02.L
										{
											OFFSET 0.033092 -0.023401 -0.019127
											CHANNELS 3 Xrotation Yrotation Zrotation
											JOINT f_ring.03.L
											{
												OFFSET 0.021392 -0.015362 -0.017824
												CHANNELS 3 Xrotation Yrotation Zrotation
												End Site
												{
													OFFSET 0.008670 -0.007297 -0.014686
												}
											}
										}
									}
								}
								JOINT palm.04.L
								{
									OFFSET 0.043417 0.002450 0.002889
									CHANNELS 6 Xposition Yposition Zposition Yrotation Xrotation Zrotation
									JOINT f_pinky.01.L
									{
										OFFSET 0.069986 -0.026156 0.003627
										CHANNELS 3 Xrotation Yrotation Zrotation
										JOINT f_pinky.02.L
										{
											OFFSET 0.018520 -0.012813 -0.016429
											CHANNELS 3 Xrotation Yrotation Zrotation
											JOINT f_pinky.03.L
											{
												OFFSET 0.013822 -0.009796 -0.014947
												CHANNELS 3 Xrotation Yrotation Zrotation
												End Site
												{
													OFFSET 0.007238 -0.006103 -0.011657
												}
											}
										}
									}
								}
							}
						}
					}
				}
				JOINT shoulder.R
				{
					OFFSET -0.016662 0.078957 0.057696
					CHANNELS 6 Xposition Yposition Zposition Yrotation Xrotation Zrotation
					JOINT upper_arm.R
					{
						OFFSET -0.176972 -0.020537 -0.095144
						CHANNELS 6 Xposition Yposition Zposition Xrotation Yrotation Zrotation
						JOINT forearm.R
						{
							OFFSET -0.247100 -0.135500 -0.061800
							CHANNELS 3 Xrotation Yrotation Zrotation
							JOINT hand.R
							{
								OFFSET -0.217000 -0.143000 0.039300
								CHANNELS 3 Xrotation Yrotation Zrotation
								JOINT palm.01.R
								{
									OFFSET -0.021773 -0.038278 0.012988
									CHANNELS 6 Xposition Yposition Zposition Yrotation Xrotation Zrotation
									JOINT f_index.01.R
									{
										OFFSET -0.053212 -0.044139 0.008249
										CHANNELS 3 Xrotation Yrotation Zrotation
										JOINT f_index.02.R
										{
											OFFSET -0.036049 -0.024835 -0.010634
											CHANNELS 3 Xrotation Yrotation Zrotation
											JOINT f_index.03.R
											{
												OFFSET -0.021371 -0.014881 -0.010866
												CHANNELS 3 Xrotation Yrotation Zrotation
												End Site
												{
													OFFSET -0.015584 -0.009883 -0.013422
												}
											}
										}
									}
									JOINT thumb.01.R
									{
										OFFSET 0.009113 -0.002381 -0.024211
										CHANNELS 6 Xposition Yposition Zposition Xrotation Yrotation Zrotation
										JOINT thumb.02.R
										{
											OFFSET -0.019694 -0.035097 -0.011088
											CHANNELS 3 Xrotation Yrotation Zrotation
											JOINT thumb.03.R
											{
												OFFSET -0.024867 -0.021762 -0.005168
												CHANNELS 3 Xrotation Yrotation Zrotation
												End Site
												{
													OFFSET -0.016120 -0.013036 -0.001565
												}
											}
										}
									}
								}
								JOINT palm.02.R
								{
									OFFSET -0.032828 -0.025095 0.012286
									CHANNELS 6 Xposition Yposition Zposition Yrotation Xrotation Zrotation
									JOINT f_middle.01.R
									{
										OFFSET -0.055721 -0.038472 0.008040
										CHANNELS 3 Xrotation Yrotation Zrotation
										JOINT f_middle.02.R
										{
											OFFSET -0.038101 -0.027593 -0.015557
											CHANNELS 3 Xrotation Yrotation Zrotation
											JOINT f_middle.03.R
											{
												OFFSET -0.021730 -0.016530 -0.017054
												CHANNELS 3 Xrotation Yrotation Zrotation
												End Site
												{
													OFFSET -0.014096 -0.010608 -0.014293
												}
											}
										}
									}
								}
								JOINT palm.03.R
								{
									OFFSET -0.039192 -0.011488 0.008390
									CHANNELS 6 Xposition Yposition Zposition Yrotation Xrotation Zrotation
									JOINT f_ring.01.R
									{
										OFFSET -0.061839 -0.031387 0.007876
										CHANNELS 3 Xrotation Yrotation Zrotation
										JOINT f_ring.02.R
										{
											OFFSET -0.033068 -0.023437 -0.019125
											CHANNELS 3 Xrotation Yrotation Zrotation
											JOINT f_ring.03.R
											{
												OFFSET -0.021371 -0.015393 -0.017822
												CHANNELS 3 Xrotation Yrotation Zrotation
												End Site
												{
													OFFSET -0.008654 -0.007321 -0.014684
												}
											}
										}
									}
								}
								JOINT palm.04.R
								{
									OFFSET -0.043421 0.002443 0.002845
									CHANNELS 6 Xposition Yposition Zposition Yrotation Xrotation Zrotation
									JOINT f_pinky.01.R
									{
										OFFSET -0.069983 -0.026169 0.003599
										CHANNELS 3 Xrotation Yrotation Zrotation
										JOINT f_pinky.02.R
										{
											OFFSET -0.018501 -0.012842 -0.016428
											CHANNELS 3 Xrotation Yrotation Zrotation
											JOINT f_pinky.03.R
											{
												OFFSET -0.013806 -0.009821 -0.014946
												CHANNELS 3 Xrotation Yrotation Zrotation
												End Site
												{
													OFFSET -0.007226 -0.006121 -0.011655
												}
											}
										}
									}
								}
							}
						}
					}
				}
			}
		}
	}
	JOINT pelvis.L
	{
		OFFSET 0.000000 0.000000 0.000000
		CHANNELS 6 Xposition Yposition Zposition Xrotation Yrotation Zrotation
		JOINT thigh.L
		{
			OFFSET 0.101675 0.001054 -0.000000
			CHANNELS 3 Xrotation Yrotation Zrotation
			JOINT shin.L
			{
				OFFSET 0.000000 -0.534800 0.041000
				CHANNELS 3 Xrotation Yrotation Zrotation
				JOINT foot.L
				{
					OFFSET 0.000000 -0.452000 -0.044800
					CHANNELS 3 Xrotation Yrotation Zrotation
					JOINT toe.L
					{
						OFFSET -0.000000 -0.068500 0.109600
						CHANNELS 3 Xrotation Yrotation Zrotation
						End Site
						{
							OFFSET -0.000000 0.000000 0.067200
						}
					}
				}
				JOINT heel.L
				{
					OFFSET 0.000000 -0.452000 -0.044800
					CHANNELS 3 Xrotation Yrotation Zrotation
					JOINT heel.02.L
					{
						OFFSET -0.038000 -0.085200 0.016200
						CHANNELS 6 Xposition Yposition Zposition Xrotation Yrotation Zrotation
						End Site
						{
							OFFSET 0.080000 -0.000000 0.000000
						}
					}
				}
			}
		}
	}
	JOINT pelvis.R
	{
		OFFSET 0.000000 0.000000 0.000000
		CHANNELS 6 Xposition Yposition Zposition Xrotation Yrotation Zrotation
		JOINT thigh.R
		{
			OFFSET -0.094325 0.001054 0.000000
			CHANNELS 3 Xrotation Yrotation Zrotation
			JOINT shin.R
			{
				OFFSET 0.000000 -0.534800 0.041000
				CHANNELS 3 Xrotation Yrotation Zrotation
				JOINT foot.R
				{
					OFFSET 0.000000 -0.452000 -0.044800
					CHANNELS 3 Xrotation Yrotation Zrotation
					JOINT toe.R
					{
						OFFSET -0.000000 -0.068500 0.109600
						CHANNELS 3 Xrotation Yrotation Zrotation
						End Site
						{
							OFFSET -0.000000 0.000000 0.067200
						}
					}
				}
				JOINT heel.R
				{
					OFFSET 0.000000 -0.452000 -0.044800
					CHANNELS 3 Xrotation Yrotation Zrotation
					JOINT heel.02.R
					{
						OFFSET 0.038000 -0.085200 0.016200
						CHANNELS 6 Xposition Yposition Zposition Xrotation Yrotation Zrotation
						End Site
						{
							OFFSET -0.080000 0.000000 -0.000000
						}
					}
				}
			}
		}
	}
}
MOTION
Frames: 4
Frame Time: 0.041667
-0.016241 0.221109 -0.002970 -62.347620 4.146562 92.019034 -0.000000 0.000002 -0.000001 0.000000 -0.000002 0.000000 0.000000 0.000002 -0.000001 0.000001 0.000004 -0.000000 0.000924 0.155148 0.009274 0.669100 0.003952 -5.613255 0.019937 0.078966 0.057518 -37.511218 5.831677 43.292874 0.177025 -0.020465 -0.095062 -19.064817 16.096842 -61.501503 -49.091838 13.478555 -76.899420 -0.000002 0.000001 0.000001 0.021770 -0.038291 0.012954 0.000000 0.000003 -0.000001 -0.000001 -0.000000 0.000001 0.000002 -0.000002 0.000004 -0.000000 0.000002 -0.000003 -0.009090 -0.002348 -0.024224 -0.000000 -0.000000 -0.000001 0.000002 -0.000006 -0.000001 0.000002 0.000002 -0.000004 0.032823 -0.025104 0.012281 0.000000 0.000001 0.000005 0.000003 -0.000000 -0.000009 -0.000003 -0.000002 -0.000000 0.000001 -0.000002 0.000006 0.039230 -0.011402 0.008390 0.000001 -0.000001 0.000008 0.000001 -0.000000 -0.000002 -0.000001 0.000007 0.000003 0.000003 -0.000005 0.000005 0.043417 0.002450 0.002889 -0.000001 0.000002 -0.000000 0.000001 -0.000000 0.000003 -0.000003 -0.000006 0.000002 -0.000003 0.000003 -0.000001 -0.016662 0.078956 0.057696 -37.526832 9.827924 -25.921227 -0.176972 -0.020537 -0.095144 -29.186355 5.341571 27.750078 -70.267169 -3.795171 59.151501 -0.000001 0.000001 0.000002 -0.021773 -0.038278 0.012988 0.000001 -0.000001 0.000002 -0.000002 -0.000003 0.000000 -0.000001 -0.000000 -0.000001 -0.000003 -0.000001 0.000004 0.009113 -0.002381 -0.024211 0.000003 -0.000003 -0.000001 0.000001 0.000000 -0.000001 0.000000 -0.000004 -0.000003 -0.032828 -0.025095 0.012286 0.000001 0.000001 -0.000003 0.000004 0.000003 -0.000003 0.000001 0.000003 -0.000005 -0.000001 -0.000006 -0.000005 -0.039192 -0.011488 0.008390 0.000001 -0.000001 0.000001 0.000000 0.000003 0.000004 -0.000000 0.000002 -0.000002 -0.000000 -0.000000 -0.000004 -0.043421 0.002443 0.002845 -0.000001 -0.000001 0.000000 -0.000001 0.000007 -0.000003 -0.000002 -0.000001 -0.000000 -0.000003 -0.000000 0.000001 0.000000 0.000000 0.000000 -2.050447 -0.577583 5.551291 5.355144 0.616492 8.051950 11.190499 -1.594242 16.309981 0.000000 0.000001 -0.000001 0.000002 -0.000002 -0.000000 -0.000002 0.000001 -0.000004 -0.038000 -0.085200 0.016200 0.000001 0.000001 0.000000 -0.000000 0.000000 0.000000 -2.026154 -0.574958 6.785723 7.036399 0.700785 9.333471 16.826509 -1.115647 11.331443 -0.000005 -0.000003 -0.000002 -0.000001 0.000002 -0.000003 0.000002 -0.000003 -0.000003 0.038000 -0.085200 0.016200 -0.000001 0.000000 -0.000003 
-0.011798 0.219515 -0.001922 -56.868804 3.856008 91.881105 -0.000000 0.000006 -0.000000 0.000000 0.000004 -0.000000 0.000000 -0.000002 0.000000 0.000001 0.000001 0.000000 0.000924 0.155147 0.009274 -1.547055 0.007673 -8.468434 0.019937 0.078966 0.057518 -34.355619 8.429858 51.420376 0.177025 -0.020465 -0.095062 -18.331480 18.274350 -73.496824 -38.349702 23.070728 -100.503222 -0.000003 0.000005 0.000004 0.021770 -0.038291 0.012954 0.000001 0.000002 -0.000001 -0.000001 0.000003 0.000003 0.000005 0.000001 0.000005 -0.000003 0.000001 -0.000000 -0.009090 -0.002348 -0.024224 -0.000000 0.000000 0.000001 -0.000000 -0.000002 0.000005 -0.000003 -0.000003 0.000003 0.032823 -0.025104 0.012281 0.000002 -0.000002 -0.000001 0.000003 -0.000003 -0.000004 -0.000004 -0.000003 0.000001 -0.000003 -0.000008 -0.000000 0.039230 -0.011402 0.008390 0.000001 0.000002 0.000004 0.000002 0.000005 -0.000000 -0.000005 0.000001 0.000001 0.000000 -0.000001 0.000005 0.043417 0.002450 0.002889 0.000000 0.000001 -0.000003 0.000001 -0.000007 -0.000003 -0.000002 -0.000002 0.000003 -0.000001 -0.000002 -0.000000 -0.016662 0.078957 0.057696 -38.101759 11.448772 -30.530686 -0.176972 -0.020537 -0.095144 -34.968263 0.892699 37.365677 -67.169781 -27.395976 73.885401 -0.000003 0.000000 0.000005 -0.021773 -0.038278 0.012988 0.000001 0.000000 -0.000007 -0.000002 -0.000004 -0.000005 -0.000003 -0.000004 -0.000007 0.000000 0.000003 0.000002 0.009114 -0.002381 -0.024211 0.000001 0.000001 0.000001 0.000001 0.000000 0.000000 0.000000 0.000002 -0.000001 -0.032828 -0.025095 0.012286 0.000001 0.000002 -0.000006 0.000002 0.000007 -0.000001 0.000003 -0.000003 -0.000002 0.000002 0.000003 -0.000003 -0.039192 -0.011488 0.008390 -0.000001 0.000004 -0.000002 -0.000000 0.000000 -0.000002 0.000003 -0.000001 0.000002 -0.000005 -0.000001 -0.000002 -0.043421 0.002443 0.002844 0.000003 0.000004 -0.000003 -0.000004 0.000005 -0.000001 -0.000001 -0.000004 -0.000002 -0.000000 0.000000 -0.000003 0.000000 0.000000 0.000000 -1.907011 -0.451481 4.273087 9.972582 0.504701 6.327384 9.953861 -1.619304 16.573915 -0.000002 0.000002 0.000002 -0.000002 0.000000 0.000002 0.000003 -0.000001 -0.000000 -0.038000 -0.085200 0.016200 -0.000000 0.000005 -0.000003 0.000000 0.000000 0.000000 -1.880958 -0.449251 5.507483 13.832494 0.669562 9.387101 10.988309 -1.026694 10.417188 0.000000 -0.000001 0.000002 -0.000003 -0.000002 0.000003 0.000007 -0.000005 0.000001 0.038000 -0.085200 0.016200 -0.000003 0.000000 -0.000002 
-0.011008 0.213612 0.003424 5.352668 0.931979 86.491095 -0.000001 -0.000001 -0.000000 -0.000001 0.000000 0.000000 -0.000000 0.000000 0.000000 0.000000 -0.000000 -0.000000 0.000924 0.155148 0.009274 3.423265 -0.002214 -4.205175 0.019937 0.078966 0.057518 -7.184349 5.433302 47.239876 0.177025 -0.020465 -0.095062 -50.206248 -10.729835 -32.095032 48.951508 -10.856530 -252.620584 -0.000004 0.000004 0.000002 0.021770 -0.038291 0.012954 0.000002 0.000001 0.000005 0.000000 -0.000002 -0.000004 0.000002 -0.000001 0.000001 0.000002 0.000000 -0.000001 -0.009090 -0.002348 -0.024224 0.000007 -0.000005 -0.000002 0.000001 0.000001 0.000005 0.000002 -0.000004 -0.000001 0.032823 -0.025104 0.012281 -0.000000 -0.000000 0.000002 0.000001 -0.000003 -0.000000 -0.000003 -0.000001 0.000005 -0.000000 -0.000001 -0.000001 0.039230 -0.011402 0.008390 0.000001 -0.000001 0.000003 0.000002 0.000002 -0.000002 -0.000002 0.000001 0.000003 0.000002 -0.000000 0.000003 0.043417 0.002450 0.002889 0.000001 0.000002 -0.000005 0.000001 0.000001 -0.000002 -0.000001 0.000004 0.000000 -0.000002 0.000003 -0.000001 -0.016662 0.078957 0.057696 -6.420459 3.718422 -33.455264 -0.176972 -0.020537 -0.095144 -44.032075 0.081613 38.749627 -128.782766 -143.142597 45.763637 -0.000001 0.000003 0.000001 -0.021773 -0.038278 0.012988 -0.000001 -0.000001 -0.000003 -0.000002 0.000001 -0.000005 -0.000003 -0.000000 -0.000004 -0.000000 -0.000000 -0.000003 0.009114 -0.002381 -0.024211 -0.000000 -0.000001 0.000001 0.000001 -0.000001 -0.000001 -0.000001 -0.000002 -0.000004 -0.032828 -0.025095 0.012286 -0.000000 0.000001 -0.000003 0.000001 -0.000002 0.000001 -0.000001 0.000002 -0.000004 -0.000004 0.000003 -0.000002 -0.039192 -0.011488 0.008390 -0.000002 0.000002 -0.000002 -0.000001 0.000002 -0.000005 -0.000000 0.000000 -0.000000 -0.000001 0.000001 0.000000 -0.043421 0.002443 0.002845 -0.000000 0.000002 -0.000005 -0.000004 0.000000 0.000001 -0.000003 -0.000002 -0.000004 -0.000001 0.000002 -0.000004 -0.000000 0.000000 -0.000000 -1.947754 0.569648 -7.541844 27.261947 -0.002081 -1.253321 2.313610 -0.281425 2.842502 0.000002 -0.000001 -0.000001 0.000002 -0.000001 -0.000001 0.000005 -0.000001 -0.000000 -0.038000 -0.085200 0.016200 -0.000005 -0.000000 -0.000001 -0.000000 0.000000 0.000000 -1.886396 0.562174 -6.308262 27.608999 0.002724 1.585823 14.553257 -0.038734 0.391156 -0.000002 -0.000001 -0.000001 0.000003 0.000000 -0.000000 0.000000 -0.000001 -0.000000 0.038000 -0.085200 0.016200 0.000001 0.000001 -0.000001 
-0.012220 0.212169 0.002592 3.310683 2.157036 86.058553 -0.000000 0.000000 0.000000 -0.000001 0.000000 -0.000001 0.000000 0.000000 -0.000000 0.000000 0.000000 -0.000000 0.000924 0.155147 0.009274 -0.909596 0.008782 -4.266367 0.019937 0.078966 0.057518 -12.701192 4.757507 47.108856 0.177025 -0.020465 -0.095062 -50.575406 -18.752175 -26.552529 26.269603 -14.529573 -273.553393 -0.000003 0.000003 0.000001 0.021770 -0.038291 0.012954 0.000001 0.000000 0.000001 -0.000000 -0.000000 0.000001 -0.000001 -0.000000 0.000005 -0.000000 0.000003 -0.000002 -0.009090 -0.002348 -0.024223 0.000002 -0.000003 -0.000003 -0.000001 -0.000000 0.000005 0.000002 -0.000001 -0.000004 0.032823 -0.025104 0.012281 -0.000002 0.000002 0.000004 0.000001 -0.000001 -0.000004 -0.000000 0.000002 -0.000000 -0.000001 -0.000000 0.000000 0.039230 -0.011402 0.008390 0.000001 0.000000 0.000001 0.000003 0.000002 -0.000002 -0.000001 0.000003 0.000001 0.000002 0.000003 0.000001 0.043417 0.002450 0.002889 0.000000 -0.000000 -0.000002 -0.000001 -0.000003 -0.000002 0.000002 0.000000 0.000001 -0.000001 -0.000003 -0.000001 -0.016662 0.078957 0.057696 -7.753315 3.388679 -33.516896 -0.176972 -0.020537 -0.095144 -46.551335 5.078934 35.032457 -130.991308 -158.473831 53.634170 -0.000000 0.000000 0.000004 -0.021773 -0.038278 0.012988 0.000000 -0.000002 0.000005 -0.000001 0.000001 0.000001 -0.000003 0.000001 -0.000001 0.000001 -0.000003 -0.000000 0.009114 -0.002381 -0.024211 0.000001 -0.000002 0.000000 -0.000000 -0.000000 -0.000003 -0.000000 -0.000000 0.000001 -0.032828 -0.025095 0.012286 0.000001 -0.000000 0.000006 -0.000002 0.000000 -0.000001 0.000001 -0.000002 0.000001 -0.000003 -0.000001 -0.000004 -0.039192 -0.011488 0.008390 0.000001 -0.000000 0.000007 -0.000001 0.000001 -0.000003 0.000002 -0.000003 -0.000002 -0.000001 -0.000001 -0.000000 -0.043421 0.002443 0.002845 -0.000000 -0.000001 0.000004 -0.000001 0.000001 0.000003 -0.000001 -0.000003 0.000003 -0.000001 0.000000 0.000003 -0.000000 0.000000 -0.000000 -2.059411 0.359397 -5.032322 25.136809 0.072964 -0.182093 7.457340 -0.117881 1.191363 -0.000003 -0.000000 0.000000 -0.000002 -0.000001 -0.000000 0.000000 -0.000001 -0.000001 -0.038000 -0.085200 0.016200 -0.000002 -0.000001 -0.000001 -0.000000 0.000000 -0.000000 -2.002653 0.354992 -3.798492 23.387391 0.100391 2.600912 19.546082 0.019799 -0.199420 0.000000 -0.000000 -0.000000 0.000004 0.000001 0.000000 0.000003 0.000000 0.000000 0.038000 -0.085200 0.016200 -0.000003 0.000001 0.000000 
